<svg width="320" height="320" viewBox="0 0 320 320" fill="none" xmlns="http://www.w3.org/2000/svg">
  <defs>
    <radialGradient id="glow" cx="50%" cy="42%" r="58%">
      <stop offset="0%" stop-color="#4ADE80" stop-opacity="0.38"/>
      <stop offset="62%" stop-color="#22C55E" stop-opacity="0.14"/>
      <stop offset="100%" stop-color="#080C09" stop-opacity="0"/>
    </radialGradient>
    <linearGradient id="ring" x1="74" y1="43" x2="251" y2="276" gradientUnits="userSpaceOnUse">
      <stop stop-color="#86EFAC"/>
      <stop offset="0.48" stop-color="#4ADE80"/>
      <stop offset="1" stop-color="#16A34A"/>
    </linearGradient>
    <filter id="shadow" x="20" y="20" width="280" height="280" filterUnits="userSpaceOnUse" color-interpolation-filters="sRGB">
      <feDropShadow dx="0" dy="16" stdDeviation="18" flood-color="#000000" flood-opacity="0.42"/>
      <feDropShadow dx="0" dy="0" stdDeviation="16" flood-color="#4ADE80" flood-opacity="0.22"/>
    </filter>
  </defs>
  <circle cx="160" cy="160" r="148" fill="url(#glow)"/>
  <g filter="url(#shadow)">
    <circle cx="160" cy="160" r="116" fill="#080C09" stroke="url(#ring)" stroke-width="7"/>
    <circle cx="160" cy="160" r="96" stroke="#4ADE80" stroke-opacity="0.25" stroke-width="1.5"/>
    <path d="M160 74L178.3 95.6L206.4 92.5L212.7 120.1L238.8 131.1L227.4 157L242.5 180.9L218.3 195.5L216.3 223.7L188.4 228.3L172.8 251.9L147.2 239.9L121.6 251.9L106 228.3L78.1 223.7L76.1 195.5L51.9 180.9L67 157L55.6 131.1L81.7 120.1L88 92.5L116.1 95.6L134.4 74H160Z" fill="#0B120D" stroke="#4ADE80" stroke-opacity="0.34" stroke-width="2"/>
  </g>
  <text x="160" y="123" text-anchor="middle" fill="#A7F3D0" font-family="Inter, Arial, sans-serif" font-size="18" font-weight="700" letter-spacing="3">GARANTIA</text>
  <text x="160" y="178" text-anchor="middle" fill="#F8FAF8" font-family="Inter, Arial, sans-serif" font-size="70" font-weight="900" letter-spacing="-3">7</text>
  <text x="160" y="215" text-anchor="middle" fill="#4ADE80" font-family="Inter, Arial, sans-serif" font-size="37" font-weight="900" letter-spacing="2">DIAS</text>
  <text x="160" y="244" text-anchor="middle" fill="#A0A89A" font-family="Inter, Arial, sans-serif" font-size="13" font-weight="600" letter-spacing="2">RISCO ZERO</text>
</svg>